<svg id="Layer_1" data-name="Layer 1" xmlns="http://www.w3.org/2000/svg" viewBox="0 0 800 800"><path d="M659.75,55.75q0,41.06-3.14,120.55c0,.67-.05,1.33-.07,2-31,17.22-65.64,139.56-170.41,160a146.11,146.11,0,0,1-16.23,2.23c-83.1,6.8-140.09-60.22-212.22-32.55-63.73,24.46-88,103.07-75.15,111.17,10.35,6.53,37.21-37.8,93.17-45.47a102.48,102.48,0,0,1,43.66,3.1,101.31,101.31,0,0,0-13.15,1.51q-8.55,1.95-8.54,17.45,0,30.25,1.94,90.53a1.62,1.62,0,0,0,0,.31,11.51,11.51,0,0,0-7.38-2.64,11.64,11.64,0,0,0-11.64,11.64v95.88c-3.59.23-7.9.44-12.92.6v-75.8a11.64,11.64,0,0,0-23.27,0v76.29c-4.06,0-8.36.08-12.92.09V534.36a11.64,11.64,0,1,0-23.27,0v58.28c-4.56,0-8.87,0-12.94-.09V555A11.64,11.64,0,0,0,172,555V592c-3.89-.15-7.34-.35-10.33-.54v-15.7a11.68,11.68,0,0,0-11.64-11.64,11.63,11.63,0,0,0-9.75,5.3q.39-41.5,4-117.43,4.09-84.52,4.07-126.78,0-45-3.88-135.1T140.67,55c0-5.69,2.71-8.52,8.13-8.52,8,0,20.11.38,36.23,1.16s28.25,1.16,36.28,1.16q12.39,0,37.41-1.16t37.4-1.16q6.58,0,6.59,7,0,29.07-4.26,87t-4.28,87c0,9.06,2.46,14.34,7.36,15.89q10.08,3.12,99.24,3.12,82.13,0,95.87-3.07l.28-.05c6.2-1.55,9.31-6.83,9.31-15.89q0-8.64-.26-20-.59-25.35-2.45-64.34-2.72-56.4-2.73-84.71c0-8,3.26-12,9.72-12q10.8,0,32.55,1.07c.58,0,1.16,0,1.74.09,15.38.77,26.93,1.16,34.71,1.16q11.22,0,34.31-1.16t34.7-1.16C656,46.46,659.75,49.56,659.75,55.75Z" style="fill:#191919"/><path d="M659.79,568.8q0,76.38-48.61,132.49-43,50.13-120.63,52.73-14.93.53-82.05.52-12.6,0-37.94-.78T332.62,753c-5,0-7.45-2-7.45-6q0-28.57,2.18-85.86t2.19-85.86q0-29.87-2.19-89.49t-2.18-89.24q0-5.44,7.45-6.49Q350.89,388,392.55,388c52.82,0,87,3.28,102.63,2.34,46.05-2.78,93.11,12.2,142.41-72.11,17.91-30.64,25.9-37.1,22.25-6.18,0,12.36-.3,39.46,0,59.35.39,25.86.52,45.65,0,75.43C658.83,505.87,659.79,559.36,659.79,568.8Zm-95.56,0q0-43.9-26.85-71.7-27.12-28.85-71.77-28.84-40.94,0-40.93,10.65,0,15.33-.53,46.11t-.53,46.12q0,15.06.53,45.33t.53,45.59q0,11.18,42.53,11.17,46,0,72.3-29.87Q564.23,615,564.23,568.8Z" style="fill:#191919"/></svg>